# xmcd CD database file
#
# Track frame offsets:
#	150
#	8805
#	26482
#	50504
#	70056
#	90102
#	111429
#	133578
#
# Disc length: 1994 seconds
#
# Revision: 1
# Processed by: cddbd v1.5.2PL0 Copyright (c) Steve Scherf et al.
# Submitted via: CDex 1.70beta2
#
DISCID=5d07c808
DTITLE=GET IN THE RING - Alter Ego
DYEAR=2012
DGENRE=東方アレンジ
TTITLE0=みぃ - Introduction -Alter Ego- (Instrumental)
TTITLE1=みぃ - S-M-X ～Split-Moon Exdrive～
TTITLE2=みぃ - Twinkle Twinkle Eclipce
TTITLE3=みぃ - クロスハート
TTITLE4=みぃ - 鳥獣伎楽 ～地獄極楽SUPER LIVE 2012～ tour final
TTITLE5=みぃ - 花焉
TTITLE6=みぃ - Rapid Shot!!(Bonus Track)
TTITLE7=みぃ - HIJIRI 02 -超姐貴 究極無敵魔界最強女-
EXTD=YEAR: 2012
EXTT0=
EXTT1=
EXTT2=
EXTT3=
EXTT4=
EXTT5=
EXTT6=
EXTT7=
PLAYORDER=
